<?xml version="1.0" encoding="utf-8"?>
<!-- Generator: Adobe Illustrator 17.1.0, SVG Export Plug-In . SVG Version: 6.00 Build 0)  -->
<!DOCTYPE svg PUBLIC "-//W3C//DTD SVG 1.1//EN" "http://www.w3.org/Graphics/SVG/1.1/DTD/svg11.dtd">
<svg version="1.1" xmlns="http://www.w3.org/2000/svg" xmlns:xlink="http://www.w3.org/1999/xlink" x="0px" y="0px"
	 viewBox="0 0 2324 702" enable-background="new 0 0 2324 702" xml:space="preserve">
<g id="Bg">
</g>
<g id="Layer_1_5_">
	<g>
		<g>
			<g>
				<path fill="#8100FF" d="M2177.4,132.8v43.7h-12.9V70.9h27.4c4.6,0,8.6,0.2,11.8,0.5c3.2,0.3,6.2,0.9,8.9,1.6
					c7.4,2,13,5.4,16.9,10.2c3.9,4.8,5.8,10.8,5.8,18c0,4.3-0.7,8.1-2.1,11.4c-1.4,3.4-3.3,6.3-5.8,8.8c-2.5,2.5-5.4,4.5-8.9,6.1
					c-3.5,1.6-7.3,2.7-11.5,3.5v0.3l31.3,45.2h-12.9l-32.5-43.7H2177.4z M2177.4,82.5v38.7h12.7c3.9,0,7.3-0.1,10.1-0.4
					c2.8-0.3,5.3-0.7,7.5-1.4c4.5-1.4,7.9-3.6,10.3-6.6c2.4-3,3.6-6.9,3.6-11.8c0-4.5-1.2-8.2-3.5-10.9c-2.3-2.8-5.4-4.8-9.4-6
					c-1.9-0.6-4.2-1-6.8-1.3c-2.6-0.3-6-0.4-10-0.4H2177.4z"/>
			</g>
			<g>
				<path fill="#8100FF" d="M2201.4,235.6c-61.7,0-111.8-50.2-111.8-111.8s50.2-111.8,111.8-111.8s111.8,50.2,111.8,111.8
					S2263.1,235.6,2201.4,235.6z M2201.4,20c-57.2,0-103.7,46.5-103.7,103.7s46.5,103.7,103.7,103.7s103.7-46.5,103.7-103.7
					S2258.6,20,2201.4,20z"/>
			</g>
		</g>
		<path fill="#8100FF" d="M1653.8,113.5c18.5,0,37,0,55.5,0c0,16.2,0,32.4,0,48.6c94.9,2.7,194.7,0.4,291.5,1.2c0,17,0,33.9,0,50.9
			c-94.5,2.7-193.9,0.4-290.3,1.2c-2.1,55.5-1.2,114.4-1.2,172.4c0,58.6-4.9,116.1,9.3,163.1c13.8,45.8,47.5,71.6,91.4,82.1
			c56.8,13.6,135.9,2.2,173.5-30.1c12.5,12.1,23.2,26.1,33.5,40.5c-47.6,36.4-117.4,55-196.6,45.1c-71.2-8.9-121.5-40.4-148.1-98.3
			c-27.5-59.9-19.7-143.3-19.7-226.7c0-83.3,0-165.6,0-246.4C1652.6,115.3,1652.5,113.7,1653.8,113.5z"/>
		<path fill="#8100FF" d="M477.4,691c-18.9,0-37.8,0-56.7,0c0-70,0-141.3,0-214c0-90.6,7.4-183.8-40.5-226.7
			c-50.3-45.1-154.4-43.7-217.5-12.7c-48.8,24-84.3,66.7-89.1,136.5c-7.1,104,5.3,211.1,0,316.9c-18.9,0-37.8,0-56.7,0
			c0-168.1,0-336.2,0-504.3c18.9,0,37.8,0,56.7,0c0,19.3,0,38.6,0,57.8c38-43.7,92.8-77.1,171.2-82.1
			c129.2-8.3,209.8,43.6,227.9,152.7c9.3,56.1,4.6,120.5,4.6,186.2C477.4,563.9,477.4,628,477.4,691z"/>
		<path fill="#8100FF" d="M1069.7,444.7c-151.9,0-303.8,0-455.8,0c7.7,100.2,61.3,172.7,157.3,189.7
			c115.1,20.3,195.5-33.5,230.2-111c19.3,0,38.6,0,57.8,0c-34.3,89.3-97.5,146.4-197.8,163.1c-169.6,28.2-288.9-79-305.4-229
			c-6.2-56.7,2.3-112.4,20.8-157.3c33.2-80.3,109-142.4,215.1-149.2c94.2-6,164.2,30.3,208.2,77.5
			C1047.4,278.9,1073,346.9,1069.7,444.7z M948.2,253.9c-33.9-31.6-86.5-55-150.4-50.9c-113.2,7.2-169.5,80.7-183.9,189.7
			c132.3,0,264.5,0,396.8,0C1005.2,333.1,984.1,287.3,948.2,253.9z"/>
		<path fill="#8100FF" d="M1092.8,173.1c21.6-2.7,48.2-0.4,71.7-1.2c52.2,59.8,105,122.7,157.3,186.2c3.9,4.8,19.2,26.5,22,26.6
			c3.6,0.2,19-21.6,23.1-26.6c50.4-61.6,102.9-126,153.8-186.2c22,0,44,0,65.9,0c1.7,4.8-5.9,9.7-10.4,15
			c-65.4,76.9-132,160.8-197.8,238.3c72.2,88.2,150.6,176.3,219.8,263.7c-20.4-4.8-47.9,6.3-69.4,0c-6.2-1.8-18.5-18.3-25.4-26.6
			c-53-63.4-110.9-133.1-161.9-194.3C1276.7,539.8,1217.4,617,1153,689c-22.4,0-44.7,0-67.1,0c-1.3-4.5,5.8-10.8,10.4-16.2
			c68.5-79.9,140.3-165,209.4-245.2C1235.9,341.6,1164.2,257.5,1092.8,173.1z"/>
	</g>
</g>
</svg>
